<svg xmlns="http://www.w3.org/2000/svg" xmlns:xlink="http://www.w3.org/1999/xlink" width="1713" zoomAndPan="magnify" viewBox="0 0 1284.75 1616.249996" height="2155" preserveAspectRatio="xMidYMid meet" version="1.0"><defs><g/><clipPath id="abd84f4380"><path d="M 0.171875 0 L 1284.328125 0 L 1284.328125 1615.5 L 0.171875 1615.5 Z M 0.171875 0 " clip-rule="nonzero"/></clipPath><clipPath id="8cee4bb3bc"><path d="M 78.558594 188.910156 L 1283.742188 188.910156 L 1283.742188 1394.089844 L 78.558594 1394.089844 Z M 78.558594 188.910156 " clip-rule="nonzero"/></clipPath><clipPath id="626bf5d3ab"><path d="M 681.148438 188.910156 C 348.347656 188.910156 78.558594 458.699219 78.558594 791.5 C 78.558594 1124.300781 348.347656 1394.089844 681.148438 1394.089844 C 1013.953125 1394.089844 1283.742188 1124.300781 1283.742188 791.5 C 1283.742188 458.699219 1013.953125 188.910156 681.148438 188.910156 Z M 681.148438 188.910156 " clip-rule="nonzero"/></clipPath><clipPath id="6eb77ab135"><path d="M 1029.507812 807.871094 L 1174.613281 807.871094 L 1174.613281 1140.222656 L 1029.507812 1140.222656 Z M 1029.507812 807.871094 " clip-rule="nonzero"/></clipPath></defs><g clip-path="url(#abd84f4380)"><path fill="#ffffff" d="M 0.171875 0 L 1284.328125 0 L 1284.328125 1615.5 L 0.171875 1615.5 Z M 0.171875 0 " fill-opacity="1" fill-rule="nonzero"/></g><g clip-path="url(#8cee4bb3bc)"><g clip-path="url(#626bf5d3ab)"><path fill="#8c52ff" d="M 78.558594 188.910156 L 1283.742188 188.910156 L 1283.742188 1394.089844 L 78.558594 1394.089844 Z M 78.558594 188.910156 " fill-opacity="1" fill-rule="nonzero"/></g></g><g fill="#ffffff" fill-opacity="1"><g transform="translate(580.463225, 1120.242921)"><g><path d="M 496.25 -732.4375 L 414.65625 -13.359375 C 413.375 -6.046875 409.394531 -2.070312 402.71875 -1.4375 L 304.421875 1.90625 C 297.421875 1.90625 293.921875 -1.113281 293.921875 -7.15625 L 329.234375 -320.65625 L 208.046875 -316.359375 L 173.6875 -13.359375 C 172.726562 -5.722656 168.59375 -1.75 161.28125 -1.4375 L 62.984375 1.90625 C 55.984375 1.90625 52.484375 -1.113281 52.484375 -7.15625 L 134.5625 -729.09375 C 135.832031 -735.769531 139.96875 -739.429688 146.96875 -740.078125 L 242.875 -743.890625 C 251.144531 -743.566406 255.28125 -739.75 255.28125 -732.4375 L 220.453125 -428.484375 L 342.125 -432.78125 L 375.515625 -729.09375 C 376.472656 -736.09375 380.769531 -739.753906 388.40625 -740.078125 L 483.84375 -743.890625 C 492.113281 -743.566406 496.25 -739.75 496.25 -732.4375 Z M 496.25 -732.4375 "/></g></g></g><g clip-path="url(#6eb77ab135)"><path fill="#ffffff" d="M 1136.640625 807.871094 L 1029.507812 1026.128906 L 1089.410156 1026.492188 L 1074.085938 1140.222656 L 1174.613281 968.144531 L 1113.726562 966.269531 L 1136.640625 807.871094 " fill-opacity="1" fill-rule="nonzero"/></g><path stroke-linecap="butt" transform="matrix(0.916536, 0, 0, 0.916536, 221.097062, 367.570336)" fill="none" stroke-linejoin="miter" d="M 393.751376 470.956309 L 227.082733 476.684398 L 189.58591 805.333517 C 188.196508 813.320451 183.68308 817.659137 176.041366 818.353839 L 68.750505 824.081928 C 61.113052 824.081928 57.290064 820.783162 57.290064 814.185631 L 147.916619 26.164215 C 149.306021 18.871983 153.819449 14.878516 161.456901 14.183814 L 446.876846 2.207676 C 455.558481 3.247596 459.897168 7.935765 459.897168 16.267918 L 446.876846 124.083002 C 445.832663 133.109857 441.319236 137.798025 433.336564 138.143245 L 265.623738 143.871334 L 242.707119 343.872854 L 407.291658 338.144765 C 416.322775 338.489984 420.836203 343.003412 420.836203 351.685047 L 407.291658 457.935987 C 405.902256 465.922921 401.388828 470.261608 393.751376 470.956309 Z M 393.751376 470.956309 " stroke="#ffffff" stroke-width="26.66675" stroke-opacity="1" stroke-miterlimit="4"/></svg>